<svg id="Layer_2" data-name="Layer 2" xmlns="http://www.w3.org/2000/svg" viewBox="0 0 128.01 128"><defs><style>.cls-1{fill:#1d79ff;}</style></defs><title>Artboard 1 copy 4</title><path class="cls-1" d="M89.68,73a10.2,10.2,0,0,0-5.89,1.87V44.52a2.19,2.19,0,0,0-3.85-1.43L64,61.7,48.05,43.1a2.19,2.19,0,0,0-3.85,1.43V75a10.25,10.25,0,1,0,4.32,8.89v0a1.92,1.92,0,0,0,.06-.51v-33l13.75,16a2.2,2.2,0,0,0,3.33,0l13.75-16v33a1.92,1.92,0,0,0,0,.32A10.25,10.25,0,1,0,89.68,73ZM38.27,89.29a5.88,5.88,0,1,1,5.89-5.88A5.88,5.88,0,0,1,38.27,89.29Zm51.41-.11a5.88,5.88,0,1,1,5.88-5.88A5.88,5.88,0,0,1,89.68,89.17Z"/></svg>